<?xml version="1.0" standalone="no"?>
<!DOCTYPE svg PUBLIC "-//W3C//DTD SVG 20010904//EN"
 "http://www.w3.org/TR/2001/REC-SVG-20010904/DTD/svg10.dtd">
<svg version="1.0" xmlns="http://www.w3.org/2000/svg"
 width="1024.000000pt" height="1024.000000pt" viewBox="0 0 1024.000000 1024.000000"
 preserveAspectRatio="xMidYMid meet">

<g transform="translate(0.000000,1024.000000) scale(0.100000,-0.100000)"
fill="#000000" stroke="none">
<path d="M4880 8964 c-1127 -81 -2142 -626 -2810 -1509 -755 -996 -969 -2298
-574 -3485 274 -822 847 -1548 1588 -2010 421 -264 929 -459 1404 -539 255
-43 407 -53 717 -48 310 5 469 23 740 81 891 193 1700 711 2249 1441 250 332
462 740 586 1130 75 237 139 560 160 805 16 187 13 561 -5 733 -103 977 -580
1879 -1320 2498 -590 493 -1279 790 -2053 884 -122 15 -566 27 -682 19z m640
-479 c644 -75 1294 -353 1797 -772 113 -94 323 -304 412 -412 352 -424 600
-947 701 -1476 43 -224 52 -311 57 -566 10 -450 -40 -795 -167 -1164 -288
-835 -878 -1508 -1667 -1904 -364 -182 -718 -289 -1113 -338 -204 -25 -652
-25 -835 1 -766 105 -1432 434 -1976 976 -280 279 -502 597 -662 947 -195 426
-289 833 -304 1308 -23 751 192 1446 632 2041 473 639 1140 1087 1904 1279
206 51 411 83 651 99 106 7 436 -4 570 -19z"/>
<path d="M3102 7321 c-72 -25 -141 -85 -177 -156 l-30 -59 0 -1985 0 -1986 28
-57 c31 -63 86 -116 156 -150 l46 -23 2000 0 2000 0 52 24 c61 27 126 93 156
159 l22 47 0 1985 0 1985 -28 57 c-32 65 -89 121 -156 152 l-46 21 -1985 2
c-1899 2 -1987 2 -2038 -16z m3114 -347 c15 -11 37 -33 48 -48 20 -27 21 -42
26 -561 l5 -533 50 -34 c27 -18 68 -56 91 -85 157 -193 110 -537 -100 -745
l-46 -44 -2 -790 -3 -789 -24 -34 c-46 -64 13 -61 -1143 -61 -1033 0 -1054 0
-1086 20 -18 11 -41 34 -52 52 -19 32 -20 52 -20 812 l0 779 -63 67 c-105 111
-155 218 -177 379 -26 189 42 353 184 441 l56 35 0 525 c0 596 -3 573 80 617
l44 23 1052 -2 c1045 -3 1053 -3 1080 -24z m737 15 c60 -16 69 -50 65 -230 -3
-140 -4 -149 -27 -173 l-24 -26 -179 0 c-234 0 -218 -16 -218 213 0 192 3 203
60 217 52 12 279 11 323 -1z m-3303 -19 c18 -18 20 -33 20 -197 0 -150 -2
-179 -17 -195 -14 -16 -34 -18 -198 -18 -241 0 -225 -15 -225 212 0 232 -15
218 222 218 165 0 179 -1 198 -20z m-1 -824 c20 -18 21 -29 21 -201 0 -237 18
-220 -222 -220 -234 0 -218 -16 -218 219 0 234 -7 227 231 224 148 -3 169 -5
188 -22z m3316 12 c47 -21 55 -53 55 -211 0 -79 -5 -158 -11 -175 -16 -46 -59
-54 -246 -49 -129 4 -157 8 -174 23 -17 16 -19 32 -19 194 0 183 2 195 45 218
28 16 316 16 350 0z m-3316 -842 c20 -18 21 -29 21 -197 l0 -178 -26 -20 c-25
-19 -40 -21 -196 -21 -166 0 -169 0 -193 25 -25 24 -25 27 -25 198 0 230 -14
217 231 214 148 -2 169 -4 188 -21z m3343 -4 c21 -21 23 -33 26 -159 4 -161
-1 -197 -33 -229 -24 -23 -28 -24 -192 -24 -116 1 -173 4 -184 13 -34 26 -39
55 -39 212 l0 157 30 29 30 30 170 -3 c161 -3 171 -4 192 -26z m-3373 -803
c17 -6 36 -19 41 -29 6 -10 10 -95 10 -188 0 -221 15 -206 -216 -210 l-174 -3
-25 25 c-25 25 -25 27 -25 189 0 150 2 167 20 190 11 14 30 28 43 30 49 9 296
6 326 -4z m3345 -3 c51 -21 58 -52 54 -226 l-3 -152 -28 -24 c-27 -23 -33 -24
-198 -24 -167 0 -170 0 -194 25 -25 24 -25 27 -25 188 0 150 2 167 20 190 26
32 35 34 203 36 97 1 147 -3 171 -13z m-3314 -836 c18 -18 20 -35 22 -177 2
-201 1 -205 -24 -225 -17 -16 -43 -18 -193 -18 -159 0 -174 2 -199 21 l-26 20
0 179 0 179 26 20 c25 19 40 21 200 21 161 0 176 -2 194 -20z m3339 1 c28 -28
33 -70 29 -231 -3 -141 -3 -142 -31 -166 -27 -23 -33 -24 -196 -24 -155 0
-170 2 -195 21 l-26 20 0 175 c0 237 -13 224 225 224 160 0 177 -2 194 -19z"/>
<path d="M4630 6353 c-27 -10 -67 -38 -101 -72 -75 -75 -100 -141 -107 -278
-8 -164 21 -270 104 -389 108 -153 270 -183 391 -71 82 75 123 192 123 353 0
217 -68 366 -200 438 -65 35 -146 43 -210 19z"/>
<path d="M5449 6355 c-98 -32 -192 -151 -224 -286 -20 -85 -20 -267 0 -344 33
-127 105 -213 202 -241 62 -18 109 -12 177 24 192 103 290 469 181 682 -70
137 -209 206 -336 165z"/>
<path d="M4016 5726 c-58 -22 -108 -66 -141 -127 -28 -51 -30 -60 -29 -164 1
-95 4 -120 29 -185 72 -193 205 -310 353 -310 103 0 168 45 217 152 52 115 41
264 -33 411 -42 85 -125 173 -195 206 -59 29 -149 36 -201 17z"/>
<path d="M6073 5726 c-168 -55 -308 -270 -306 -471 2 -250 171 -380 371 -285
84 40 154 114 202 215 45 94 60 159 60 259 0 89 -20 151 -67 205 -64 76 -169
107 -260 77z"/>
<path d="M4976 5370 c-114 -41 -186 -108 -252 -233 -92 -177 -146 -239 -302
-346 -105 -72 -171 -146 -213 -236 -95 -210 -45 -425 134 -572 73 -60 144 -86
237 -85 97 0 150 13 275 66 134 58 191 70 306 64 77 -4 109 -11 174 -38 183
-75 235 -90 327 -90 109 0 171 22 253 87 104 85 163 195 172 323 13 186 -79
356 -259 476 -104 69 -217 185 -263 269 -110 201 -151 250 -255 299 -58 27
-77 31 -170 33 -86 3 -116 0 -164 -17z"/>
</g>
</svg>
